<?xml version="1.0" standalone="no"?>
<!DOCTYPE svg PUBLIC "-//W3C//DTD SVG 20010904//EN"
 "http://www.w3.org/TR/2001/REC-SVG-20010904/DTD/svg10.dtd">
<svg version="1.0" xmlns="http://www.w3.org/2000/svg"
 width="512.000000pt" height="512.000000pt" viewBox="0 0 512.000000 512.000000"
 preserveAspectRatio="xMidYMid meet">
<metadata>
Created by potrace 1.14, written by Peter Selinger 2001-2017
</metadata>
<g transform="translate(0.000000,512.000000) scale(0.100000,-0.100000)"
fill="#000000" stroke="none">
<path d="M3578 4714 c-2 -1 -30 -5 -63 -8 -256 -21 -542 -121 -779 -273 -337
-216 -615 -592 -746 -1008 -31 -98 -61 -208 -65 -240 -2 -11 -8 -47 -14 -80
-6 -33 -13 -78 -16 -100 -3 -22 -7 -49 -10 -60 -24 -113 -24 -660 -1 -795 3
-14 7 -47 10 -75 3 -27 8 -61 11 -75 2 -13 7 -42 10 -65 4 -22 19 -92 35 -155
140 -564 484 -1011 951 -1238 110 -54 281 -116 344 -126 20 -4 40 -8 44 -10
13 -8 185 -35 271 -42 193 -16 530 5 648 40 9 3 29 7 43 10 54 9 237 76 319
116 158 77 288 162 415 269 l64 54 -62 81 c-34 45 -64 83 -67 86 -3 3 -52 65
-109 137 l-103 133 -56 -44 c-197 -151 -437 -267 -602 -292 -14 -2 -52 -8 -85
-13 -108 -17 -345 -11 -447 11 -335 72 -574 259 -731 573 -39 79 -102 244
-112 293 -1 10 -8 35 -14 57 -6 23 -13 60 -16 84 -3 24 -7 47 -10 50 -2 4 -7
36 -10 71 -4 36 -8 67 -10 71 -5 8 -19 326 -18 429 0 153 16 361 34 465 6 33
13 74 16 90 8 53 54 216 77 279 30 80 102 223 132 263 13 17 24 35 24 38 0 11
82 107 135 159 145 141 321 228 553 273 46 9 332 10 392 1 222 -33 452 -129
606 -255 23 -18 46 -33 51 -33 5 0 41 37 79 83 38 45 71 84 74 87 3 3 50 59
105 125 55 66 104 123 108 126 5 4 -17 26 -50 51 -266 202 -587 337 -863 363
-30 3 -68 8 -85 12 -31 6 -402 13 -407 7z"/>
<path d="M0 2590 l0 -670 600 0 600 0 0 670 0 670 -600 0 -600 0 0 -670z"/>
</g>
</svg>
